<svg width="25" height="23" viewBox="0 0 25 23" fill="none" xmlns="http://www.w3.org/2000/svg">
<path id="Vector" d="M14.6133 7.35646L12.4101 2.97548L7.67806 2.8172C6.78777 2.97548 5.98741 2.39511 5.86331 1.65281C5.76799 1.08336 6.07734 0.4666 6.64209 0.137299C9.15108 0.220989 11.6619 0.304678 14.1709 0.390188L17.7284 7.46381L14.6151 7.3601L14.6133 7.35646ZM21.196 18.54L13.3201 18.3217L14.8921 15.6163L19.7716 15.7509L22.1619 11.6392C22.6097 11.037 23.3543 10.7805 23.9964 10.9897C24.6996 11.2189 24.964 11.903 25 11.9958C23.732 14.1772 22.4658 16.3568 21.1978 18.5382L21.196 18.54ZM18.6025 14.4828L17.1637 11.7029L19.8759 7.62027L17.6888 3.39575C17.2644 2.6953 17.4011 1.82201 17.9442 1.36354C18.3579 1.01422 18.964 0.943269 19.5018 1.17069C20.6619 3.41212 21.8219 5.65174 22.982 7.89317L18.6043 14.4847L18.6025 14.4828ZM10.0953 7.52748L5.21583 7.40741L2.83813 11.5264C2.48201 12.2232 1.71942 12.5634 1.05036 12.3706C0.523381 12.2178 0.120504 11.7538 0 11.1771C1.26079 8.99206 2.52158 6.80702 3.78417 4.62199L11.6619 4.81666L10.0971 7.52566L10.0953 7.52748ZM5.1205 16.1821L7.38489 20.3666C7.92266 21.3345 7.6295 22.3934 6.9982 22.7372C6.40468 23.0592 5.68165 22.6644 5.61331 22.6244C4.41187 20.4048 3.21223 18.187 2.01079 15.9674L6.26799 9.29771L7.75719 12.0486L5.1205 16.1821ZM11.0486 22.5771L7.36691 15.569L10.482 15.6181L12.7626 19.9591L17.4982 20.0337C18.2698 20.0737 18.8993 20.6049 19.036 21.2854C19.1888 22.0568 18.6313 22.6444 18.5827 22.6954C16.0719 22.6553 13.5612 22.6171 11.0504 22.5771H11.0486Z" fill="black"/>
</svg>
